SCREENS: 
http://s1.bild.me/bilder/030611/85319291.png 
http://s1.bild.me/bilder/030611/85242012.png 
http://s1.bild.me/bilder/030611/60390183.png

General
Format                           : Matroska
File size                        : 35.1 MiB
Duration                         : 21mn 37s
Overall bit rate                 : 227 Kbps
Movie name                       : Family Guy S10E04 35mb port8zero
Encoded date                     : UTC 2011-11-07 16:24:57
Writing application              : mkvmerge v4.6.0 
Writing library                  : libebml v1.2.0 + libmatroska v1.1.0

Video
ID                               : 1
Format                           : AVC
Format/Info                      : Advanced Video Codec
Format profile                   : High@L4.0
Format settings, CABAC           : Yes
Format settings, ReFrames        : 3 frames
Format settings, GOP             : M=4, N=13
Codec ID                         : V_MPEG4/ISO/AVC
Duration                         : 21mn 37s
Bit rate mode                    : Variable
Bit rate                         : 94.7 Kbps
Nominal bit rate                 : 128 Kbps
Maximum bit rate                 : 25.0 Mbps
Width                            : 624 pixels
Height                           : 352 pixels
Display aspect ratio             : 16:9
Frame rate                       : 23.976 fps
Color space                      : YUV
Chroma subsampling               : 4:2:0
Bit depth                        : 8 bits
Scan type                        : Progressive
Bits/(Pixel*Frame)               : 0.018
Stream size                      : 14.6 MiB (42%)
Writing library                  : x264 core 114 r1924 08d04a4


Audio
ID                               : 2
Format                           : Vorbis
Format settings, Floor           : 1
Codec ID                         : A_VORBIS
Duration                         : 21mn 37s
Bit rate mode                    : Constant
Bit rate                         : 128 Kbps
Channel(s)                       : 2 channels
Sampling rate                    : 48.0 KHz
Stream size                      : 19.8 MiB (56%)




HASH:     8BE06F1D668C8CEFD9A237FDB9B609B839148AE7





ENJOY
       scuba-doo


share the wealth and seed, comments are more then welcome